<?xml version="1.0" encoding="utf-8"?>
<!-- Generator: Adobe Illustrator 18.0.0, SVG Export Plug-In . SVG Version: 6.00 Build 0)  -->
<!DOCTYPE svg PUBLIC "-//W3C//DTD SVG 1.1//EN" "http://www.w3.org/Graphics/SVG/1.1/DTD/svg11.dtd">
<svg version="1.1" id="Layer_1" xmlns="http://www.w3.org/2000/svg" xmlns:xlink="http://www.w3.org/1999/xlink" x="0px" y="0px"
	 viewBox="0 0 600 600" enable-background="new 0 0 600 600" xml:space="preserve">
<circle fill="#99A4A4" stroke="#99A4A4" stroke-miterlimit="10" cx="299.6" cy="301.1" r="296.8"/>
<g>
	<defs>
		<circle id="SVGID_1_" cx="300" cy="300.5" r="297.4"/>
	</defs>
	<clipPath id="SVGID_2_">
		<use xlink:href="#SVGID_1_"  overflow="visible"/>
	</clipPath>
	<polygon clip-path="url(#SVGID_2_)" fill="#878E8E" stroke="#878E8E" stroke-miterlimit="10" points="722.5,471.2 427.6,708.6 
		55.9,336.9 102.7,304.8 147.3,264.5 101.9,210.9 256.4,255.5 359.2,286.8 430,299.8 541,289.7 	"/>
</g>
<g>
	<g>
		<path fill="#9B5151" d="M96.5,247.4L95,173.9l52-25.1c0,0,39-11.8,49.7-2.8c10.6,9,19.5,32.9,19.5,32.9s10.1-23.8,23.8-31.3
			c8.2-4.5,38.2-10.9,44-10.2c12.9,3.6,22.9,20.7,33,46.3c20.4,17.1,83.3,69.1,83.3,69.1l19.6,8.4l110.8,23.8l33.9,36.4l-66.5,40.4
			l-234.6,5.8l-177-77.6L96.5,247.4z"/>
		<path fill="#B7625E" d="M81.2,250c11.9-36.8-5.4-67.2,6.2-80.9s38.4-18.5,84.2-25.7c-29.3,6.6-49.5,19-58.8,29.1
			c-9.3,10.1,9,33.1,25.7,39.2s55.1-27.1,72.7-31.8c26.1-3.3,66.1,30.5,66.1,30.5s74.4,62,85.2,65.6s21.6,2.2,35.6,0.5
			c14-1.8,21.6-15.4,21.6-15.4s100,12.1,110.8,23.8l33.9,36.4l-66.5,40.4l-234.7,5.8l-177-77.6L81.2,250z"/>
		<path fill="#202E3D" d="M213.5,229.8c-21.8-10.4-59.6-19.6-59.6-19.6l32.3-17.4c0,0,58.9,40,68.6,38.8c9.6-1.2,3.3-35.2,3.3-35.2
			l26.8,19.8c0,0-4.9,20-4.5,28.5c0.4,8.4,29.4,43.9,46.7,52.3c17.2,8.4,66.7,16.1,85.4,15.8c18.7-0.2,45.6-2.2,64.9-8.2
			c22.2-6.9,35.9-7.6,53.1-19.9c19,2.3,33.9,36.4,33.9,36.4l-66.5,40.4l-234.6,5.8l-42.7-109.1C220.6,258.4,235.3,240.3,213.5,229.8
			z"/>
		<path fill="#131C23" d="M475.2,354.6c0,0-18.1-18.9-30.9-19.9c-12.7-0.9-125.4-1.6-148.3-15.2c-65.7-30.1-65.2-74.6-106.9-85.6
			c-19.9-5.4-86.1-0.1-107.9,16c-5,3.6-6.8,21.3-6.8,21.3l157.4,86.3l195.6,12.9L475.2,354.6z"/>
		<path fill="#A4B3C1" d="M475.9,360.2c0,0-18.1-18.9-30.9-19.9c-12.7-0.9-125.2,0.3-150.2-9.7c-78.8-24.5-68.7-71.2-110.3-82.2
			c-19.9-5.4-80.7-8.9-102.5,7.2c-5,3.6-6.8,21.3-6.8,21.3l157.4,86.3l195.6,12.9L475.9,360.2z"/>
		<path fill="#B2C3D6" d="M74.4,270.7c-5.5,38.4-26.7,60.6-19.2,66.9c4.2,3.5,11.8,8.1,18.2,7.6c5.1-0.4,3.7-4.9,8.8-5.6
			c5.1-0.6-1.7,10.4,5.3,12.6c7,2.2,26,9.6,35.1,9.9s5.5-9.9,10.2-10.5c8.4-1.1-1.2,13.9,6.5,14.7c7.7,0.8,28.6,6.3,37,6
			c8.4-0.3,5.3-7.7,9.9-8.3c8.9-1.1,0.6,10.6,9.4,12.9c8.8,2.3,35.2,7.6,43.8,9.3c8.6,1.7,2-9.4,9.9-8.3c7.9,1.1,2.5,13,10.8,13.7
			c8.3,0.7,59.3,3.7,65.1,3.6s0.3-8,7.3-9.1s3.3,10.5,12.3,10.2c9-0.3,57.3-1.7,61.5-5c4.1-3.3,1.2-7.6,5.3-9.1
			c5.7-0.7,3.9,8.4,7.6,8c23-2.7,37.8-4.9,64.2-11c21.6-5,37.2-11.1,55.7-20.3c18.5-9.2,32.8-20.5,32.8-20.5s2-18.2-7.3-17.2
			c0,0-14.6,11.3-53,24.5S415,360.7,415,360.7s-58.9,4.5-115.1-3.5c-24.8-3.5-69.4-9.9-95.1-22.4c-17.9-8.7-59.9-44.7-59.9-44.7
			C126.9,282.3,74.4,270.7,74.4,270.7z"/>
		<g>
			<path fill="#9B5151" d="M83.4,301.6c-5.1,3.4-5.2,8.1-3.6,13.6c0.6,2.2,2.1,4,4,5c11.8,6.2,45.6,13.3,55.1,11.2
				c5.5-1.2,10-4.5,7.8-13.1C144.5,309.5,93.6,294.8,83.4,301.6z"/>
			<path fill="#B7625E" d="M83.7,305.8c-5.1,3.4-5.2,5.4-3.5,10.8c0.6,2.2,4.4,5.8,6.2,6.8c11.8,6.2,43.4,11.1,52.9,9
				c5.5-1.2,7.2-4.3,7.7-10C147.8,313.5,93.8,299,83.7,305.8z"/>
		</g>
	</g>
	<g>
		<path fill="#B2C3D6" stroke="#B2C3D6" stroke-miterlimit="10" d="M415.8,259.5c-2.6-7.7-16.8-7.7-16.8-7.7s-18.6,11.2-30.5,29.3
			c0.6,4.9,5.6,6.4,11.9,5.6C386.8,285.8,403.2,275.2,415.8,259.5z"/>
		<path fill="#A4B3C1" stroke="#A4B3C1" stroke-miterlimit="10" d="M395.7,249c-1.1,3.3-41,12.5-63.3,15.3
			c-4.8,0.6-8.9-1.4-9.7-10.3c1.5-6.4,39.8-12.6,62.4-13.8C391.9,239.4,396.8,245.8,395.7,249z"/>
		<path fill="#B2C3D6" stroke="#B2C3D6" stroke-miterlimit="10" d="M364.9,278.4c5.6-5.3,12.4-42.4,11.9-46.9
			c-0.6-4.5-4.6-10.6-10.4-8.1c-5.9,2.5-15.8,37.3-15.2,52.1C351.4,281,359.3,283.7,364.9,278.4z"/>
		<path fill="#A4B3C1" stroke="#A4B3C1" stroke-miterlimit="10" d="M363.8,222c-1.1,3.3-43.9,10.1-66.2,12.9
			c-4.8,0.6-8.9-1.4-9.7-10.3c1.5-6.4,42.7-10.1,65.3-11.4C360.1,212.3,364.9,218.7,363.8,222z"/>
		<path fill="#B2C3D6" stroke="#B2C3D6" stroke-miterlimit="10" d="M320,250.1c5.6-5.3,22.6-43.7,22-48.2
			c-0.6-4.5-4.6-10.6-10.4-8.1c-5.9,2.5-25.9,38.6-25.4,53.4C306.5,252.7,314.4,255.4,320,250.1z"/>
		<path fill="#B2C3D6" stroke="#B2C3D6" stroke-miterlimit="10" d="M279.8,218.4c13.2-4.2,43.4-17.2,47.8-28.8
			c1.6-4.2-7.2-10.5-13-8c-5.9,2.5-49.6,15-49.1,29.8C265.7,216.9,272.6,220.7,279.8,218.4z"/>
	</g>
</g>
</svg>
